<svg t="1686709121362" class="icon" viewBox="0 0 1024 1024" version="1.1" xmlns="http://www.w3.org/2000/svg" p-id="1476" width="32" height="32"><path d="M967.111111 56.888889H398.222222a56.888889 56.888889 0 0 0-56.888889 56.888889v170.666666H56.888889a56.888889 56.888889 0 0 0-56.888889 56.888889v568.888889a56.888889 56.888889 0 0 0 56.888889 56.888889h568.888889a56.888889 56.888889 0 0 0 56.888889-56.888889v-170.666666h284.444444a56.888889 56.888889 0 0 0 56.888889-56.888889V113.777778a56.888889 56.888889 0 0 0-56.888889-56.888889z m-398.222222 768a28.444444 28.444444 0 0 1-28.444445 28.444444h-398.222222a28.444444 28.444444 0 0 1-28.444444-28.444444v-398.222222a28.444444 28.444444 0 0 1 28.444444-28.444445h398.222222a28.444444 28.444444 0 0 1 28.444445 28.444445v398.222222z m341.333333-227.555556a28.444444 28.444444 0 0 1-28.444444 28.444445H682.666667V341.333333a56.888889 56.888889 0 0 0-56.888889-56.888889H455.111111V199.111111a28.444444 28.444444 0 0 1 28.444445-28.444444h398.222222a28.444444 28.444444 0 0 1 28.444444 28.444444v398.222222z" fill="#ffffff" p-id="1477"></path></svg>